<svg width="50.000000" height="50.000000" viewBox="0 0 50 50" fill="none" xmlns="http://www.w3.org/2000/svg" xmlns:xlink="http://www.w3.org/1999/xlink">
	<desc>
			Created with Pixso.
	</desc>
	<defs>
		<clipPath id="clip42_141">
			<rect id="Icons/vector" width="50.000000" height="50.000000" fill="white" fill-opacity="0"/>
		</clipPath>
	</defs>
	<rect id="Icons/vector" width="50.000000" height="50.000000" fill="#FFFFFF" fill-opacity="0"/>
	<rect id="Icons/vector" width="50.000000" height="50.000000" fill="#FFFFFF" fill-opacity="0"/>
	<g clip-path="url(#clip42_141)">
		<path id="Vector" d="M48.5352 0L42.5781 0C41.7685 0 41.1133 0.655273 41.1133 1.46484L41.1133 2.92969L29.1247 2.92969C28.518 1.22827 26.9072 0 25 0C23.0928 0 21.482 1.22827 20.8753 2.92969L8.88672 2.92969L8.88672 1.46484C8.88672 0.655273 8.23154 0 7.42188 0L1.46484 0C0.655182 0 0 0.655273 0 1.46484L0 7.32422C0 8.13379 0.655182 8.78906 1.46484 8.78906L7.42188 8.78906C8.23154 8.78906 8.88672 8.13379 8.88672 7.32422L8.88672 5.83984L14.9027 5.83984C9.81903 9.01562 6.46698 14.5938 6.06631 20.8413C4.30869 21.4165 3.02734 23.0527 3.02734 25C3.02734 27.4233 4.99863 29.3945 7.42188 29.3945C9.84512 29.3945 11.8164 27.4233 11.8164 25C11.8164 23.1309 10.6386 21.5417 8.99023 20.9075C9.49005 13.9421 14.3502 8.07153 21.1107 6.39648C21.8418 7.8103 23.3015 8.78906 25 8.78906C26.6985 8.78906 28.1582 7.8103 28.8893 6.39648C35.6498 8.07129 40.5099 13.9421 41.0098 20.9075C39.3614 21.5417 38.1836 23.1309 38.1836 25C38.1836 27.4233 40.1549 29.3945 42.5781 29.3945C45.0014 29.3945 46.9727 27.4233 46.9727 25C46.9727 23.0527 45.6913 21.4165 43.9337 20.8413C43.533 14.5938 40.181 9.03516 35.0973 5.85938L41.1133 5.85938L41.1133 7.32422C41.1133 8.13379 41.7685 8.78906 42.5781 8.78906L48.5352 8.78906C49.3448 8.78906 50 8.13379 50 7.32422L50 1.46484C50 0.655273 49.3448 0 48.5352 0Z" fill="#FFFFFF" fill-opacity="1.000000" fill-rule="nonzero"/>
		<path id="Vector" d="M34.9658 48.1831C34.1996 45.8384 31.9922 44.043 29.3945 44.043L20.6055 44.043C18.0078 44.043 15.8004 45.8384 15.0342 48.1831C14.7388 49.0872 15.5078 50 16.459 50L33.541 50C34.4921 50 35.2612 49.0872 34.9658 48.1831Z" fill="#FFFFFF" fill-opacity="1.000000" fill-rule="nonzero"/>
		<path id="Vector" d="M37.9375 30.0469L26.4648 12.8379L26.4648 26.7349C28.1662 27.3416 29.3945 28.9521 29.3945 30.8594C29.3945 33.2827 27.4232 35.2539 25 35.2539C22.5768 35.2539 20.6054 33.2827 20.6054 30.8594C20.6054 28.9521 21.8338 27.3416 23.5351 26.7349L23.5351 12.8379L12.0625 30.0469C11.6748 30.6277 11.752 31.4016 12.2456 31.8953C14.9348 34.5845 16.6537 38.0488 17.3171 41.7649C18.3347 41.3521 19.4414 41.1133 20.6054 41.1133L29.3945 41.1133C30.5586 41.1133 31.6653 41.3521 32.6829 41.7646C33.3463 38.0483 35.0652 34.5845 37.7544 31.8953C38.2479 31.4016 38.3252 30.6277 37.9375 30.0469Z" fill="#FFFFFF" fill-opacity="1.000000" fill-rule="nonzero"/>
		<path id="Vector" d="M25 29.3945C24.1918 29.3945 23.5352 30.0513 23.5352 30.8594C23.5352 31.6675 24.1918 32.3242 25 32.3242C25.8082 32.3242 26.4648 31.6675 26.4648 30.8594C26.4648 30.0513 25.8082 29.3945 25 29.3945Z" fill="#FFFFFF" fill-opacity="1.000000" fill-rule="nonzero"/>
	</g>
</svg>
