<svg width="35.000000" height="35.000000" viewBox="0 0 35 35" fill="none" xmlns="http://www.w3.org/2000/svg" xmlns:xlink="http://www.w3.org/1999/xlink">
	<desc>
			Created with Pixso.
	</desc>
	<defs>
		<clipPath id="clip135_746">
			<rect id="Icons/fill/system/download-2-fill" width="35.000000" height="35.000000" fill="white" fill-opacity="0"/>
		</clipPath>
	</defs>
	<rect id="Icons/fill/system/download-2-fill" width="35.000000" height="35.000000" fill="#FFFFFF" fill-opacity="0"/>
	<rect id="Icons/fill/system/download-2-fill" width="35.000000" height="35.000000" fill="#FFFFFF" fill-opacity="0"/>
	<g clip-path="url(#clip135_746)">
		<path id="Vector" d="M5.83328 27.7085L29.1666 27.7085L29.1666 17.5L32.0833 17.5L32.0833 29.1665C32.0833 29.5532 31.9297 29.9243 31.6562 30.1978C31.3827 30.4712 31.0117 30.625 30.625 30.625L4.37494 30.625C3.98816 30.625 3.61725 30.4712 3.34375 30.1978C3.07025 29.9243 2.91663 29.5532 2.91663 29.1665L2.91663 17.5L5.83328 17.5L5.83328 27.7085ZM20.4166 13.125L27.7083 13.125L17.5 23.3335L7.29163 13.125L14.5833 13.125L14.5833 4.375L20.4166 4.375L20.4166 13.125Z" fill="#FFFFFF" fill-opacity="1.000000" fill-rule="nonzero"/>
	</g>
</svg>
