<svg width="35.000000" height="35.000000" viewBox="0 0 35 35" fill="none" xmlns="http://www.w3.org/2000/svg" xmlns:xlink="http://www.w3.org/1999/xlink">
	<desc>
			Created with Pixso.
	</desc>
	<defs>
		<clipPath id="clip135_742">
			<rect id="Icons/fill/system/thumb-up-fill" width="35.000000" height="35.000000" fill="white" fill-opacity="0"/>
		</clipPath>
	</defs>
	<rect id="Icons/fill/system/thumb-up-fill" width="35.000000" height="35.000000" fill="#FFFFFF" fill-opacity="0"/>
	<rect id="Icons/fill/system/thumb-up-fill" width="35.000000" height="35.000000" fill="#FFFFFF" fill-opacity="0"/>
	<g clip-path="url(#clip135_742)">
		<path id="Vector" d="M2.91669 13.125L7.29169 13.125L7.29169 30.625L2.91669 30.625C2.52991 30.625 2.15897 30.4717 1.88547 30.1982C1.612 29.9243 1.45834 29.5537 1.45834 29.167L1.45834 14.5835C1.45834 14.1968 1.612 13.8257 1.88547 13.5522C2.15897 13.2788 2.52991 13.125 2.91669 13.125ZM10.6357 11.2397L19.969 1.90625C20.093 1.78174 20.2578 1.70654 20.433 1.69385C20.6083 1.68115 20.7822 1.73242 20.9227 1.83789L22.1667 2.771C22.5121 3.03027 22.7731 3.38623 22.9166 3.79346C23.0602 4.20117 23.0798 4.64209 22.9731 5.06055L21.2917 11.667L30.625 11.667C31.3986 11.667 32.1404 11.9741 32.6874 12.521C33.2344 13.0679 33.5417 13.8101 33.5417 14.5835L33.5417 17.6519C33.5421 18.0332 33.4678 18.4106 33.3229 18.7632L28.8094 29.7227C28.6993 29.9897 28.5123 30.2183 28.2721 30.3789C28.0319 30.5396 27.7494 30.6255 27.4604 30.625L11.6667 30.625C11.2799 30.625 10.909 30.4717 10.6355 30.1982C10.362 29.9243 10.2083 29.5537 10.2083 29.167L10.2083 12.2705C10.2084 11.8838 10.3621 11.5132 10.6357 11.2397Z" fill="#FFFFFF" fill-opacity="1.000000" fill-rule="nonzero"/>
	</g>
</svg>
