<svg width="24.000000" height="24.000000" viewBox="0 0 24 24" fill="none" xmlns="http://www.w3.org/2000/svg" xmlns:xlink="http://www.w3.org/1999/xlink">
	<desc>
			Created with Pixso.
	</desc>
	<defs>
		<clipPath id="clip26_237">
			<rect id="Icons/twitter-fill" width="24.000000" height="24.000000" fill="white" fill-opacity="0"/>
		</clipPath>
	</defs>
	<rect id="Icons/fill/twitter-fill" width="24.000000" height="24.000000" fill="#FFFFFF" fill-opacity="0"/>
	<rect id="Icons/fill/twitter-fill" width="24.000000" height="24.000000" fill="#FFFFFF" fill-opacity="0"/>
	<rect id="Icons/twitter-fill" width="24.000000" height="24.000000" fill="#FFFFFF" fill-opacity="0"/>
	<g clip-path="url(#clip26_237)">
		<path id="Vector" d="M22.162 5.65576C21.3986 5.99365 20.589 6.21533 19.76 6.31396C20.6337 5.7915 21.2877 4.96875 21.6 4C20.78 4.48779 19.881 4.83008 18.944 5.01514C18.3146 4.34131 17.4803 3.89502 16.571 3.74463C15.6615 3.59424 14.7279 3.74854 13.9153 4.18359C13.1026 4.61816 12.4564 5.30957 12.0771 6.1499C11.6978 6.98975 11.6068 7.93164 11.818 8.8291C10.1551 8.74561 8.52832 8.31348 7.04327 7.56055C5.55823 6.80762 4.24811 5.75098 3.198 4.45898C2.82629 5.09717 2.63095 5.82324 2.63199 6.56201C2.63199 8.01172 3.37 9.29297 4.492 10.043C3.828 10.022 3.17862 9.84277 2.59799 9.52002L2.59799 9.57178C2.59821 10.5376 2.93237 11.4736 3.54385 12.2212C4.1553 12.9683 5.00647 13.4814 5.953 13.6729C5.33661 13.8398 4.69031 13.8647 4.06299 13.7451C4.32986 14.5762 4.85001 15.3032 5.5506 15.8242C6.25116 16.3447 7.09711 16.6338 7.97 16.6499C7.10248 17.3311 6.10916 17.835 5.04688 18.1323C3.98459 18.4292 2.87411 18.5142 1.77899 18.3818C3.6907 19.6113 5.91608 20.2642 8.189 20.2617C15.882 20.2617 20.089 13.8892 20.089 8.36182C20.089 8.18213 20.084 8 20.076 7.82178C20.8949 7.22998 21.6016 6.49707 22.163 5.65674L22.162 5.65576Z" fill="#232233" fill-opacity="1.000000" fill-rule="nonzero"/>
	</g>
</svg>
