<svg width="50.000000" height="50.000000" viewBox="0 0 50 50" fill="none" xmlns="http://www.w3.org/2000/svg" xmlns:xlink="http://www.w3.org/1999/xlink">
	<desc>
			Created with Pixso.
	</desc>
	<defs>
		<clipPath id="clip42_159">
			<rect id="Icons/cell-phone" width="50.000000" height="50.000000" fill="white" fill-opacity="0"/>
		</clipPath>
	</defs>
	<rect id="Icons/cell-phone" width="50.000000" height="50.000000" fill="#FFFFFF" fill-opacity="0"/>
	<rect id="Icons/cell-phone" width="50.000000" height="50.000000" fill="#FFFFFF" fill-opacity="0"/>
	<g clip-path="url(#clip42_159)">
		<path id="Vector" d="M35.5184 0L14.4814 0C12.468 0 10.8428 1.63257 10.8428 3.64233L10.8428 46.3613C10.8428 48.3694 12.468 50 14.4814 50L35.5184 50C37.5281 50 39.157 48.3694 39.157 46.3613L39.157 3.64233C39.157 1.63257 37.5281 0 35.5184 0ZM19.809 2.21191L30.1945 2.21191C30.4569 2.21191 30.67 2.60376 30.67 3.08838C30.67 3.573 30.4569 3.96655 30.1945 3.96655L19.809 3.96655C19.5448 3.96655 19.3352 3.573 19.3352 3.08838C19.3352 2.60376 19.5448 2.21191 19.809 2.21191ZM25.0017 46.405C23.7208 46.405 22.6786 45.363 22.6786 44.0803C22.6786 42.7976 23.7208 41.759 25.0017 41.759C26.279 41.759 27.3212 42.7976 27.3212 44.0803C27.3212 45.363 26.279 46.405 25.0017 46.405ZM36.4313 38.4448L13.5703 38.4448L13.5703 6.14575L36.4313 6.14575L36.4313 38.4448Z" fill="#FFFFFF" fill-opacity="1.000000" fill-rule="nonzero"/>
	</g>
</svg>
