<svg width="56.000000" height="56.000000" viewBox="0 0 56 56" fill="none" xmlns="http://www.w3.org/2000/svg" xmlns:xlink="http://www.w3.org/1999/xlink">
	<desc>
			Created with Pixso.
	</desc>
	<defs>
		<clipPath id="clip43_16">
			<rect id="Icons/eye-scanner 1" width="56.000000" height="56.000000" transform="matrix(1 0 0 -1 0 56)" fill="white" fill-opacity="0"/>
		</clipPath>
	</defs>
	<rect id="Icons/eye-scanner 1" width="56.000000" height="56.000000" fill="#FFFFFF" fill-opacity="0"/>
	<rect id="Icons/eye-scanner 1" width="56.000000" height="56.000000" transform="matrix(1 0 0 -1 0 56)" fill="#FFFFFF" fill-opacity="0"/>
	<g clip-path="url(#clip43_16)">
		<path id="Vector" d="M55.7737 28.8608C49.4784 40.0095 39.095 46.6665 28 46.6665C16.905 46.6665 6.5217 40.0095 0.226364 28.8608C-0.074646 28.3264 -0.074646 27.6755 0.226364 27.1411C6.5217 15.9902 16.905 9.33325 28 9.33325C39.095 9.33325 49.4784 15.9902 55.7737 27.1389C56.0747 27.6731 56.0747 28.3264 55.7737 28.8608ZM28 18.6665C22.8527 18.6665 18.6667 22.8525 18.6667 27.9998C18.6667 33.1472 22.8527 37.3333 28 37.3333C33.1474 37.3333 37.3334 33.1472 37.3334 27.9998C37.3334 22.8525 33.1474 18.6665 28 18.6665Z" fill="#FFFFFF" fill-opacity="1.000000" fill-rule="nonzero"/>
		<path id="Vector" d="M53.6667 37.3333C52.3787 37.3333 51.3333 38.3787 51.3333 39.6667L51.3333 49C51.3333 50.2856 50.2856 51.3333 49 51.3333L39.6667 51.3333C38.3786 51.3333 37.3333 52.3787 37.3333 53.6667C37.3333 54.9546 38.3786 56 39.6667 56L49 56C52.8593 56 56 52.8594 56 49L56 39.6667C56 38.3787 54.9547 37.3333 53.6667 37.3333Z" fill="#FFFFFF" fill-opacity="1.000000" fill-rule="nonzero"/>
		<path id="Vector" d="M2.33333 37.3333C1.04533 37.3333 0 38.3787 0 39.6667L0 49C0 52.8594 3.14067 56 7 56L16.3333 56C17.6213 56 18.6667 54.9546 18.6667 53.6667C18.6667 52.3787 17.6213 51.3333 16.3333 51.3333L7 51.3333C5.71434 51.3333 4.66667 50.2856 4.66667 49L4.66667 39.6667C4.66667 38.3787 3.62134 37.3333 2.33333 37.3333Z" fill="#FFFFFF" fill-opacity="1.000000" fill-rule="nonzero"/>
		<path id="Vector" d="M49 -0.000244141L39.6667 -0.000244141C38.3786 -0.000244141 37.3333 1.04517 37.3333 2.33325C37.3333 3.62109 38.3786 4.6665 39.6667 4.6665L49 4.6665C50.2856 4.6665 51.3333 5.71411 51.3333 6.99976L51.3333 16.3333C51.3333 17.6211 52.3787 18.6665 53.6667 18.6665C54.9547 18.6665 56 17.6211 56 16.3333L56 6.99976C56 3.14038 52.8593 -0.000244141 49 -0.000244141Z" fill="#FFFFFF" fill-opacity="1.000000" fill-rule="nonzero"/>
		<path id="Vector" d="M16.3333 -0.000244141L7 -0.000244141C3.14067 -0.000244141 0 3.14038 0 6.99976L0 16.3333C0 17.6211 1.04533 18.6665 2.33333 18.6665C3.62134 18.6665 4.66667 17.6211 4.66667 16.3333L4.66667 6.99976C4.66667 5.71411 5.71434 4.6665 7 4.6665L16.3333 4.6665C17.6213 4.6665 18.6667 3.62109 18.6667 2.33325C18.6667 1.04517 17.6213 -0.000244141 16.3333 -0.000244141Z" fill="#FFFFFF" fill-opacity="1.000000" fill-rule="nonzero"/>
	</g>
</svg>
