<svg width="50.000000" height="50.000000" viewBox="0 0 50 50" fill="none" xmlns="http://www.w3.org/2000/svg" xmlns:xlink="http://www.w3.org/1999/xlink">
	<desc>
			Created with Pixso.
	</desc>
	<defs>
		<clipPath id="clip42_154">
			<rect id="Icons/male-telemarketer" width="50.000000" height="50.000000" fill="white" fill-opacity="0"/>
		</clipPath>
	</defs>
	<rect id="Icons/male-telemarketer" width="50.000000" height="50.000000" fill="#FFFFFF" fill-opacity="0"/>
	<rect id="Icons/male-telemarketer" width="50.000000" height="50.000000" fill="#FFFFFF" fill-opacity="0"/>
	<g clip-path="url(#clip42_154)">
		<path id="Vector" d="M15.3751 22.2756C17.6647 27.3286 22.5668 29.5281 24.9999 29.5281C26.5998 29.5281 29.267 28.5764 31.5572 26.4888C30.7198 26.5471 29.8248 26.5767 28.8684 26.5767C28.644 26.5767 28.4085 26.5747 28.1569 26.5708C27.6748 26.9421 27.0776 27.1514 26.4578 27.1514L24.42 27.1514C22.8843 27.1514 21.635 25.9021 21.635 24.3665C21.635 22.8306 22.8843 21.5813 24.42 21.5813L26.4578 21.5813C27.194 21.5813 27.8825 21.8682 28.3932 22.3633C28.5628 22.365 28.7301 22.366 28.8942 22.366C31.5249 22.366 33.2585 22.1245 34.3926 21.8337C34.2455 21.4756 34.1653 21.084 34.1653 20.675L34.1653 13.6138C34.1653 12.8792 34.438 12.175 34.9094 11.6311C34.6578 9.67285 34.2012 8.17773 33.5198 7.07471C32.1156 4.802 29.4083 3.74365 24.9999 3.74365C21.3429 3.74365 18.8175 4.50269 17.2796 6.06445C16.0875 7.27515 15.3967 9.00244 15.0737 11.6113C15.5557 12.1572 15.8345 12.8687 15.8345 13.6138L15.8345 20.675C15.8347 21.2627 15.6658 21.811 15.3751 22.2756Z" fill="#FFFFFF" fill-opacity="1.000000" fill-rule="nonzero"/>
		<path id="Vector" d="M10.3646 22.3423L12.8092 22.3423C13.7294 22.3423 14.4761 21.5959 14.4761 20.675L14.4761 13.6138C14.4761 12.9988 14.142 12.4626 13.6464 12.1738C14.1923 6.39185 16.4236 2.38501 25.0001 2.38501C29.9252 2.38501 32.9997 3.64844 34.6756 6.36084C35.6508 7.93921 36.1199 9.97778 36.339 12.1826C35.8513 12.4734 35.5239 13.0046 35.5239 13.6138L35.5239 20.675C35.5239 21.4688 36.0793 22.1316 36.8222 22.2998C35.7446 23.0044 33.5136 23.7244 28.8942 23.7244C28.52 23.7244 28.13 23.7197 27.7238 23.71C27.4861 23.2527 27.0089 22.9399 26.4579 22.9399L24.4202 22.9399C23.6325 22.9399 22.9938 23.5784 22.9938 24.3662C22.9938 25.1541 23.6325 25.7927 24.4202 25.7927L26.4579 25.7927C26.9339 25.7927 27.3545 25.5586 27.6135 25.2004C28.0425 25.2114 28.4626 25.218 28.8685 25.218C34.0755 25.218 37.3856 24.3291 38.7262 22.5659C38.7833 22.4907 38.8353 22.416 38.8828 22.3423L39.6358 22.3423C40.5562 22.3423 41.3027 21.5959 41.3027 20.675L41.3027 13.6138C41.3027 12.6934 40.5563 11.947 39.6358 11.947L38.7163 11.947C38.4577 9.28296 37.8842 7.01538 36.7047 5.10693C34.5816 1.67041 30.7527 0 24.9999 0C19.2468 0 15.4182 1.67041 13.295 5.10693C12.1156 7.01562 11.5425 9.28296 11.2836 11.947L10.3645 11.947C9.44377 11.947 8.69739 12.6934 8.69739 13.614L8.69739 20.6753C8.69739 21.5959 9.44391 22.3423 10.3646 22.3423Z" fill="#FFFFFF" fill-opacity="1.000000" fill-rule="nonzero"/>
		<path id="Vector" d="M45.1537 43.1067C44.5994 39.6604 43.4583 35.2212 41.1699 33.644C39.6095 32.5679 34.1617 29.6572 31.8355 28.4143L31.7865 28.3882C31.5203 28.2461 31.1954 28.2747 30.9581 28.4607C29.7377 29.4187 28.4017 30.064 26.9874 30.3789C26.7374 30.4343 26.5321 30.6123 26.4412 30.8516L24.9999 34.6501L23.5587 30.8516C23.4678 30.6121 23.2625 30.4343 23.0125 30.3789C21.5981 30.064 20.2619 29.4187 19.0414 28.4607C18.8042 28.2744 18.4792 28.2458 18.2131 28.3882C15.9128 29.6172 10.3945 32.5891 8.83652 33.6394C6.20108 35.4148 5.05013 41.8374 4.84621 43.1067C4.82597 43.2327 4.83765 43.3616 4.88017 43.4814C4.97445 43.7478 7.39185 50.0002 24.9998 50.0002C42.6075 50.0002 45.0252 43.7478 45.1196 43.4817C45.1622 43.3613 45.1739 43.2324 45.1537 43.1067ZM36.9551 39.1492L29.9812 39.1492L29.9812 37.6804L36.9551 37.6804L36.9551 39.1492Z" fill="#FFFFFF" fill-opacity="1.000000" fill-rule="nonzero"/>
	</g>
</svg>
