<svg width="50.000000" height="50.000000" viewBox="0 0 50 50" fill="none" xmlns="http://www.w3.org/2000/svg" xmlns:xlink="http://www.w3.org/1999/xlink">
	<desc>
			Created with Pixso.
	</desc>
	<defs>
		<clipPath id="clip42_132">
			<rect id="Icons/browser" width="50.000000" height="50.000000" fill="white" fill-opacity="0"/>
		</clipPath>
	</defs>
	<rect id="Icons/browser" width="50.000000" height="50.000000" fill="#FFFFFF" fill-opacity="0"/>
	<rect id="Icons/browser" width="50.000000" height="50.000000" fill="#FFFFFF" fill-opacity="0"/>
	<g clip-path="url(#clip42_132)">
		<path id="Vector" d="M22.0703 25L23.5352 25L23.5352 23.5352C23.5352 22.7268 22.8787 22.0703 22.0703 22.0703C21.262 22.0703 20.6055 22.7268 20.6055 23.5352C20.6055 24.3435 21.262 25 22.0703 25Z" fill="#FFFFFF" fill-opacity="1.000000" fill-rule="nonzero"/>
		<path id="Vector" d="M23.5352 27.9297C23.2403 27.9297 18.8458 27.9297 19.1406 27.9297C18.3323 27.9297 17.6758 28.5862 17.6758 29.3945L17.6758 30.8594L23.5352 30.8594L23.5352 27.9297Z" fill="#FFFFFF" fill-opacity="1.000000" fill-rule="nonzero"/>
		<path id="Vector" d="M29.3945 23.5352C29.3945 22.7268 28.738 22.0703 27.9297 22.0703C27.1213 22.0703 26.4648 22.7268 26.4648 23.5352L26.4648 25L27.9297 25C28.738 25 29.3945 24.3435 29.3945 23.5352Z" fill="#FFFFFF" fill-opacity="1.000000" fill-rule="nonzero"/>
		<path id="Vector" d="M23.5352 33.7891L20.6055 33.7891L20.6055 39.6484L29.3945 39.6484L29.3945 33.7891L26.4648 33.7891L26.4648 35.2539C26.4648 36.0635 25.8095 36.7188 25 36.7188C24.1905 36.7188 23.5352 36.0635 23.5352 35.2539L23.5352 33.7891Z" fill="#FFFFFF" fill-opacity="1.000000" fill-rule="nonzero"/>
		<path id="Vector" d="M0 44.043C0 46.4661 1.97144 48.4375 4.39453 48.4375L45.6055 48.4375C48.0286 48.4375 50 46.4661 50 44.043L50 16.2109L0 16.2109L0 44.043ZM14.7461 29.3945C14.7461 27.3689 16.1308 25.676 17.9985 25.1694C17.7944 24.6631 17.6758 24.1135 17.6758 23.5352C17.6758 21.1121 19.6472 19.1406 22.0703 19.1406C23.1998 19.1406 24.2206 19.5808 25 20.2834C25.7794 19.5808 26.8002 19.1406 27.9297 19.1406C30.3528 19.1406 32.3242 21.1121 32.3242 23.5352C32.3242 24.1135 32.2056 24.6631 32.0015 25.1694C33.8692 25.676 35.2539 27.3689 35.2539 29.3945L35.2539 32.3242C35.2539 33.1338 34.5985 33.7891 33.7891 33.7891L32.3242 33.7891L32.3242 41.1133C32.3242 41.9229 31.6689 42.5781 30.8594 42.5781L19.1406 42.5781C18.3311 42.5781 17.6758 41.9229 17.6758 41.1133L17.6758 33.7891L16.2109 33.7891C15.4015 33.7891 14.7461 33.1338 14.7461 32.3242L14.7461 29.3945Z" fill="#FFFFFF" fill-opacity="1.000000" fill-rule="nonzero"/>
		<path id="Vector" d="M32.3242 29.3945C32.3242 28.5862 31.6677 27.9297 30.8594 27.9297C30.5645 27.9297 26.17 27.9297 26.4648 27.9297L26.4648 30.8594L32.3242 30.8594L32.3242 29.3945Z" fill="#FFFFFF" fill-opacity="1.000000" fill-rule="nonzero"/>
		<path id="Vector" d="M45.6055 1.5625L4.39453 1.5625C1.97144 1.5625 0 3.53394 0 5.95703L0 13.2812L50 13.2812L50 5.95703C50 3.53394 48.0286 1.5625 45.6055 1.5625ZM7.32153 10.3516C6.51245 10.3516 5.85669 9.6958 5.85669 8.88672C5.85669 8.07764 6.51245 7.42188 7.32153 7.42188C8.13065 7.42188 8.78638 8.07764 8.78638 8.88672C8.78638 9.6958 8.13065 10.3516 7.32153 10.3516ZM13.2786 10.3516C12.4695 10.3516 11.8137 9.6958 11.8137 8.88672C11.8137 8.07764 12.4695 7.42188 13.2786 7.42188C14.0877 7.42188 14.7434 8.07764 14.7434 8.88672C14.7434 9.6958 14.0877 10.3516 13.2786 10.3516ZM19.1379 10.3516C18.3289 10.3516 17.6731 9.6958 17.6731 8.88672C17.6731 8.07764 18.3289 7.42188 19.1379 7.42188C19.9471 7.42188 20.6028 8.07764 20.6028 8.88672C20.6028 9.6958 19.9471 10.3516 19.1379 10.3516ZM42.6758 10.3516L33.7891 10.3516C32.9796 10.3516 32.3242 9.69629 32.3242 8.88672C32.3242 8.07715 32.9796 7.42188 33.7891 7.42188L42.6758 7.42188C43.4853 7.42188 44.1406 8.07715 44.1406 8.88672C44.1406 9.69629 43.4853 10.3516 42.6758 10.3516Z" fill="#FFFFFF" fill-opacity="1.000000" fill-rule="nonzero"/>
	</g>
</svg>
